<svg width="21" height="18" viewBox="0 0 21 18" fill="none" xmlns="http://www.w3.org/2000/svg">
<path d="M2.25806 16.0833C2.25806 14.8201 2.47097 13.7281 2.89681 12.8073C3.32264 11.8864 3.86523 11.122 4.52459 10.5141C5.18394 9.90607 5.91542 9.43384 6.719 9.09739C7.52259 8.76093 8.30214 8.54548 9.05765 8.45103V5.98957C7.17574 5.78888 5.572 5.31961 4.24642 4.58176C2.92085 3.84391 2.25806 2.95555 2.25806 1.91666H18.7419C18.7419 2.95555 18.0791 3.84391 16.7536 4.58176C15.428 5.31961 13.8242 5.78888 11.9423 5.98957V8.45103C12.6978 8.54548 13.4774 8.76093 14.281 9.09739C15.0846 9.43384 15.816 9.90607 16.4754 10.5141C17.1347 11.122 17.6773 11.8864 18.1032 12.8073C18.529 13.7281 18.7419 14.8201 18.7419 16.0833H13.7968V15.0208H17.4438C17.1966 13.2264 16.4342 11.8422 15.1567 10.8682C13.8792 9.89426 12.327 9.40728 10.5 9.40728C8.67303 9.40728 7.1208 9.89426 5.8433 10.8682C4.5658 11.8422 3.80342 13.2264 3.55616 15.0208H7.20322V16.0833H2.25806ZM10.5 5.01561C11.9561 5.01561 13.3022 4.80016 14.5385 4.36926C15.7748 3.93836 16.5922 3.47499 16.9905 2.97916H4.00947C4.40783 3.47499 5.22515 3.93836 6.46144 4.36926C7.69773 4.80016 9.04392 5.01561 10.5 5.01561ZM10.5 16.0833C10.0467 16.0833 9.65863 15.9446 9.33582 15.6672C9.01301 15.3897 8.8516 15.0562 8.8516 14.6667C8.8516 14.466 8.89625 14.283 8.98554 14.1177C9.07482 13.9524 9.19502 13.8049 9.34612 13.675C9.6758 13.3917 10.2424 13.0965 11.046 12.7896C11.8496 12.4826 12.7665 12.1639 13.7968 11.8333C13.3984 12.7187 13.0241 13.5068 12.6738 14.1974C12.3235 14.888 11.9835 15.375 11.6539 15.6583C11.5028 15.7882 11.3311 15.8915 11.1387 15.9682C10.9464 16.045 10.7335 16.0833 10.5 16.0833Z" fill="white"/>
</svg>
